<mxfile host="app.diagrams.net" agent="Mozilla/5.0 (Macintosh; Intel Mac OS X 10_15_7) AppleWebKit/537.36 (KHTML, like Gecko) Chrome/134.0.0.0 Safari/537.36" version="26.2.2">
  <diagram name="Page-1" id="W3dnyQtY9kF2yxEZgufe">
    <mxGraphModel dx="921" dy="834" grid="1" gridSize="10" guides="1" tooltips="1" connect="1" arrows="1" fold="1" page="1" pageScale="1" pageWidth="850" pageHeight="1100" math="0" shadow="0">
      <root>
        <mxCell id="0" />
        <mxCell id="1" parent="0" />
        <mxCell id="_5e1__LAqRbDNRKEZXSl-3" value="" style="edgeStyle=orthogonalEdgeStyle;rounded=0;orthogonalLoop=1;jettySize=auto;html=1;" edge="1" parent="1" source="_5e1__LAqRbDNRKEZXSl-1" target="_5e1__LAqRbDNRKEZXSl-2">
          <mxGeometry relative="1" as="geometry" />
        </mxCell>
        <mxCell id="_5e1__LAqRbDNRKEZXSl-1" value="Client" style="rounded=0;whiteSpace=wrap;html=1;" vertex="1" parent="1">
          <mxGeometry x="50" y="315" width="120" height="60" as="geometry" />
        </mxCell>
        <mxCell id="_5e1__LAqRbDNRKEZXSl-5" style="edgeStyle=orthogonalEdgeStyle;rounded=0;orthogonalLoop=1;jettySize=auto;html=1;exitX=1;exitY=0.5;exitDx=0;exitDy=0;entryX=0;entryY=0.5;entryDx=0;entryDy=0;" edge="1" parent="1" source="_5e1__LAqRbDNRKEZXSl-2" target="_5e1__LAqRbDNRKEZXSl-4">
          <mxGeometry relative="1" as="geometry" />
        </mxCell>
        <mxCell id="_5e1__LAqRbDNRKEZXSl-7" style="edgeStyle=orthogonalEdgeStyle;rounded=0;orthogonalLoop=1;jettySize=auto;html=1;exitX=1;exitY=0.5;exitDx=0;exitDy=0;entryX=0;entryY=0.5;entryDx=0;entryDy=0;" edge="1" parent="1" source="_5e1__LAqRbDNRKEZXSl-2" target="_5e1__LAqRbDNRKEZXSl-6">
          <mxGeometry relative="1" as="geometry" />
        </mxCell>
        <mxCell id="_5e1__LAqRbDNRKEZXSl-2" value="API Gateway" style="rounded=0;whiteSpace=wrap;html=1;" vertex="1" parent="1">
          <mxGeometry x="250" y="240" width="100" height="210" as="geometry" />
        </mxCell>
        <mxCell id="_5e1__LAqRbDNRKEZXSl-4" value="Identity Service&lt;div&gt;&lt;br&gt;&lt;/div&gt;&lt;div style=&quot;text-align: left;&quot;&gt;APIs:&lt;/div&gt;&lt;div style=&quot;text-align: left;&quot;&gt;- Register&lt;/div&gt;&lt;div style=&quot;text-align: left;&quot;&gt;- Authenticate&lt;/div&gt;" style="rounded=0;whiteSpace=wrap;html=1;" vertex="1" parent="1">
          <mxGeometry x="469" y="190" width="120" height="80" as="geometry" />
        </mxCell>
        <mxCell id="_5e1__LAqRbDNRKEZXSl-6" value="Home Service&lt;div&gt;&lt;br&gt;&lt;/div&gt;&lt;div style=&quot;text-align: left;&quot;&gt;APIs:&lt;/div&gt;&lt;div style=&quot;text-align: left;&quot;&gt;- RegisterHome&lt;/div&gt;&lt;div style=&quot;text-align: left;&quot;&gt;- AddDocs&lt;/div&gt;&lt;div style=&quot;text-align: left;&quot;&gt;- Schedule Appointment&lt;/div&gt;&lt;div style=&quot;text-align: left;&quot;&gt;- CompleteListing&lt;/div&gt;" style="rounded=0;whiteSpace=wrap;html=1;" vertex="1" parent="1">
          <mxGeometry x="450" y="330" width="190" height="120" as="geometry" />
        </mxCell>
        <mxCell id="_5e1__LAqRbDNRKEZXSl-8" value="PSQL" style="shape=cylinder3;whiteSpace=wrap;html=1;boundedLbl=1;backgroundOutline=1;size=15;" vertex="1" parent="1">
          <mxGeometry x="720" y="280" width="60" height="80" as="geometry" />
        </mxCell>
        <mxCell id="_5e1__LAqRbDNRKEZXSl-9" style="edgeStyle=orthogonalEdgeStyle;rounded=0;orthogonalLoop=1;jettySize=auto;html=1;exitX=1;exitY=0.5;exitDx=0;exitDy=0;entryX=0;entryY=0.5;entryDx=0;entryDy=0;entryPerimeter=0;" edge="1" parent="1" source="_5e1__LAqRbDNRKEZXSl-4" target="_5e1__LAqRbDNRKEZXSl-8">
          <mxGeometry relative="1" as="geometry" />
        </mxCell>
        <mxCell id="_5e1__LAqRbDNRKEZXSl-10" style="edgeStyle=orthogonalEdgeStyle;rounded=0;orthogonalLoop=1;jettySize=auto;html=1;exitX=1;exitY=0.5;exitDx=0;exitDy=0;entryX=0;entryY=0;entryDx=0;entryDy=52.5;entryPerimeter=0;" edge="1" parent="1" source="_5e1__LAqRbDNRKEZXSl-6" target="_5e1__LAqRbDNRKEZXSl-8">
          <mxGeometry relative="1" as="geometry" />
        </mxCell>
      </root>
    </mxGraphModel>
  </diagram>
</mxfile>
